<svg xmlns="http://www.w3.org/2000/svg" width="512" height="512" viewBox="0 0 512 512">
  <defs>
    <linearGradient id="gradientBackground" x1="0%" y1="0%" x2="100%" y2="100%">
      <stop offset="0%" stop-color="#4C8BF5"/>
      <stop offset="100%" stop-color="#2BA24C"/>
    </linearGradient>
  </defs>
  <circle cx="256" cy="256" r="240" fill="url(#gradientBackground)"/>
  <circle cx="256" cy="256" r="210" fill="white" opacity="0.1"/>
  <circle cx="256" cy="256" r="200" fill="white" stroke="#4C8BF5" stroke-width="10"/>
  <g transform="translate(256, 256)">
    <!-- Hour hand -->
    <line x1="0" y1="0" x2="0" y2="-70" stroke="#333" stroke-width="12" stroke-linecap="round" transform="rotate(45)"/>
    <!-- Minute hand -->
    <line x1="0" y1="0" x2="0" y2="-120" stroke="#333" stroke-width="8" stroke-linecap="round" transform="rotate(240)"/>
    <!-- Second hand -->
    <line x1="0" y1="0" x2="0" y2="-140" stroke="#E11D48" stroke-width="4" stroke-linecap="round" transform="rotate(190)"/>
    <!-- Center dot -->
    <circle cx="0" cy="0" r="12" fill="#333"/>
  </g>
  <!-- Hour marks -->
  <g>
    <line x1="256" y1="86" x2="256" y2="106" stroke="#333" stroke-width="8" stroke-linecap="round" />
    <line x1="426" y1="256" x2="406" y2="256" stroke="#333" stroke-width="8" stroke-linecap="round" />
    <line x1="256" y1="426" x2="256" y2="406" stroke="#333" stroke-width="8" stroke-linecap="round" />
    <line x1="86" y1="256" x2="106" y2="256" stroke="#333" stroke-width="8" stroke-linecap="round" />
  </g>
  <!-- Small marks for additional hours -->
  <g>
    <line x1="353" y1="124" x2="340" y2="137" stroke="#333" stroke-width="6" stroke-linecap="round" transform="rotate(0, 256, 256)"/>
    <line x1="388" y1="159" x2="375" y2="172" stroke="#333" stroke-width="6" stroke-linecap="round" transform="rotate(0, 256, 256)"/>
    <line x1="388" y1="353" x2="375" y2="340" stroke="#333" stroke-width="6" stroke-linecap="round" transform="rotate(0, 256, 256)"/>
    <line x1="353" y1="388" x2="340" y2="375" stroke="#333" stroke-width="6" stroke-linecap="round" transform="rotate(0, 256, 256)"/>
    <line x1="159" y1="388" x2="172" y2="375" stroke="#333" stroke-width="6" stroke-linecap="round" transform="rotate(0, 256, 256)"/>
    <line x1="124" y1="353" x2="137" y2="340" stroke="#333" stroke-width="6" stroke-linecap="round" transform="rotate(0, 256, 256)"/>
    <line x1="124" y1="159" x2="137" y2="172" stroke="#333" stroke-width="6" stroke-linecap="round" transform="rotate(0, 256, 256)"/>
    <line x1="159" y1="124" x2="172" y2="137" stroke="#333" stroke-width="6" stroke-linecap="round" transform="rotate(0, 256, 256)"/>
  </g>
</svg>